<svg width="180" height="180" viewBox="0 0 180 180" fill="none" xmlns="http://www.w3.org/2000/svg">
  <!-- Background -->
  <rect width="180" height="180" rx="40" fill="#4a7c59"/>

  <!-- Left leaf -->
  <path d="M72 62 C72 62 56 48 62 34 C68 20 82 30 78 46 C76 54 72 62 72 62Z"
        fill="white" opacity="0.55"/>

  <!-- Right leaf -->
  <path d="M108 62 C108 62 124 48 118 34 C112 20 98 30 102 46 C104 54 108 62 108 62Z"
        fill="white" opacity="0.55"/>

  <!-- Heart -->
  <path d="M90 132
           C88 130 44 100 44 70
           C44 52 57 42 70 46
           C78 48 86 56 90 64
           C94 56 102 48 110 46
           C123 42 136 52 136 70
           C136 100 92 130 90 132Z"
        fill="white" opacity="0.92"/>

  <!-- Small center dot -->
  <circle cx="90" cy="88" r="5" fill="#4a7c59" opacity="0.3"/>
</svg>
